<?xml version="1.0" encoding="UTF-8"?>
<svg width="28px" height="28px" viewBox="0 0 28 28" version="1.1" xmlns="http://www.w3.org/2000/svg" xmlns:xlink="http://www.w3.org/1999/xlink">
    <title>3. Symbols/28px/auto@2x</title>
    <defs>
        <polygon id="path-1" points="28 14 14 0 0 14"></polygon>
        <polygon id="path-3" points="0 0 14 14 28 0"></polygon>
    </defs>
    <g id="3.-Symbols/28px/auto" stroke="none" stroke-width="1" fill="none" fill-rule="evenodd">
        <rect id="Rectangle" x="0" y="0" width="28" height="28"></rect>
        <path d="M25.1883333,11.235 C25.3723323,11.6465831 25.474791,12.0891759 25.4908561,12.5383254 L25.4916667,14.805 C25.565553,15.5750321 25.281677,16.3363361 24.7216667,16.87 C24.2040824,17.2426917 23.5731633,17.4241325 22.9366667,17.3833333 C22.0261219,17.5186775 21.1187157,17.1194187 20.6033333,16.3566667 C20.3747102,15.9015409 20.266275,15.3955099 20.2883333,14.8866667 L20.2883333,12.6933333 C20.1901873,11.9213657 20.4833462,11.1512768 21.07,10.64 C21.6226342,10.2785905 22.2777742,10.1066162 22.9366667,10.15 C23.833976,10.045281 24.7111046,10.4679388 25.1883333,11.235 Z M10.3366667,10.2666667 L10.3366667,15.1666667 C10.3057422,15.5012059 10.420538,15.8328381 10.6516667,16.0766667 C10.950445,16.2763358 11.3088897,16.366977 11.6666667,16.3333333 C12.0060002,16.3650731 12.3454582,16.273999 12.6233333,16.0766667 C12.841825,15.8269516 12.9436515,15.4960156 12.9033333,15.1666667 L12.9033333,10.2666667 L14.07,10.2666667 L14.07,14.9333333 C14.1533201,15.6564095 13.8944437,16.3769487 13.37,16.8816667 C12.8713182,17.2284921 12.2737281,17.4044946 11.6666667,17.3833333 C10.8136164,17.4992217 9.96605807,17.1359824 9.46166667,16.4383333 C9.24640764,16.0042578 9.1459907,15.5222565 9.17,15.0383333 L9.17,10.2666667 L10.3366667,10.2666667 Z M6.18333333,10.255 L8.16666667,17.255 L6.895,17.255 L6.55666667,15.925 L4.22333333,15.925 L3.87333333,17.255 L2.61333333,17.255 L4.585,10.255 L6.18333333,10.255 Z M19.495,10.2666667 L19.495,11.34 L17.8383333,11.34 L17.8383333,17.255 L16.6366667,17.255 L16.6366667,11.34 L14.98,11.34 L14.98,10.2666667 L19.495,10.2666667 Z M22.9483333,11.2583333 C22.5695783,11.2319477 22.1925997,11.33029 21.875,11.5383333 C21.6102294,11.7871793 21.4765182,12.1451802 21.5133333,12.5066667 L21.5133333,15.0383333 C21.473551,15.397919 21.6028386,15.7556149 21.8633333,16.0066667 C22.1888116,16.2055322 22.5676806,16.299231 22.9483333,16.275 C23.3110457,16.3041458 23.6729345,16.2095612 23.975,16.0066667 C24.2269863,15.7512865 24.3474597,15.3941691 24.3016667,15.0383333 L24.3016667,12.5066667 C24.3474597,12.1508309 24.2269863,11.7937135 23.975,11.5383333 C23.6760512,11.3278123 23.3127691,11.2287354 22.9483333,11.2583333 Z M5.41333333,11.3166667 L4.45666667,14.9916667 L6.32333333,14.9916667 L5.41333333,11.3166667 Z" id="Shape" stroke="#377781" stroke-width="0.5" fill="#377781" fill-rule="nonzero"></path>
        <g id="Clipped" transform="translate(0.000000, 14.000000)">
            <mask id="mask-2" fill="white">
                <use xlink:href="#path-1"></use>
            </mask>
            <g id="Path"></g>
            <path d="M14,10.5 C8.20101013,10.5 3.5,5.79898987 3.5,0 C3.5,-5.79898987 8.20101013,-10.5 14,-10.5 C19.7989899,-10.5 24.5,-5.79898987 24.5,0 C24.5,5.79898987 19.7989899,10.5 14,10.5 L14,10.5 Z M14,-8.16666667 C9.48967454,-8.16666667 5.83333333,-4.51032546 5.83333333,-3.55271368e-15 C5.83333333,4.51032546 9.48967454,8.16666667 14,8.16666667 C18.5103255,8.16666667 22.1666667,4.51032546 22.1666667,1.77635684e-15 C22.1666667,-4.51032546 18.5103255,-8.16666667 14,-8.16666667 Z" id="Shape" fill="#377781" mask="url(#mask-2)"></path>
        </g>
        <g id="Clipped">
            <mask id="mask-4" fill="white">
                <use xlink:href="#path-3"></use>
            </mask>
            <g id="SVGID"></g>
            <path d="M14,24.5 C8.20101013,24.5 3.5,19.7989899 3.5,14 C3.5,8.20101013 8.20101013,3.5 14,3.5 C19.7989899,3.5 24.5,8.20101013 24.5,14 C24.5,19.7989899 19.7989899,24.5 14,24.5 L14,24.5 Z M14,5.83333333 C9.48967454,5.83333333 5.83333333,9.48967454 5.83333333,14 C5.83333333,18.5103255 9.48967454,22.1666667 14,22.1666667 C18.5103255,22.1666667 22.1666667,18.5103255 22.1666667,14 C22.1666667,9.48967454 18.5103255,5.83333333 14,5.83333333 Z" id="Shape" fill="#377781" mask="url(#mask-4)"></path>
        </g>
    </g>
</svg>