<?xml version="1.0" encoding="UTF-8"?>
<svg width="28px" height="28px" viewBox="0 0 28 28" version="1.1" xmlns="http://www.w3.org/2000/svg" xmlns:xlink="http://www.w3.org/1999/xlink">
    <title>3. Symbols/28px/fan@2x</title>
    <g id="3.-Symbols/28px/fan" stroke="none" stroke-width="1" fill="none" fill-rule="evenodd">
        <rect id="Rectangle" x="0" y="0" width="28" height="28"></rect>
        <g id="fan" transform="translate(3.500000, 3.498504)" fill="#377781">
            <path d="M10.0333333,7.7014958 L7.78166667,4.99482914 C7.06627337,4.14974196 6.90833679,2.96550197 7.37725484,1.96246869 C7.8461729,0.95943541 8.85612459,0.321183195 9.96333333,0.328105805 L11.8416667,0.328105805 C12.9557199,0.32799876 13.8642353,1.2209396 13.8833333,2.33482914 C13.876188,3.05000971 13.5015223,3.71118442 12.8916667,4.08482914 C11.6305344,4.84629262 10.8402827,6.19411077 10.7916667,7.6664958 L10.0333333,7.7014958 Z" id="Path"></path>
            <path d="M11.8416667,0.654765769 C12.6134194,0.648206472 13.2931858,1.16131201 13.4983371,1.90532748 C13.7034884,2.64934296 13.3827528,3.43832223 12.7166667,3.82816247 C11.4675698,4.5823132 10.6431017,5.8772893 10.4883333,7.32816247 L10.185,7.32816247 L8.03833333,4.78482914 C7.65747793,4.3352669 7.45050163,3.7640123 7.455,3.17482914 C7.45492819,1.78761498 8.57613405,0.661251424 9.96333333,0.654765769 L11.8416667,0.654765769 M11.8416667,0.00149580259 L9.96333333,0.00149580259 C8.21074973,0.00149580259 6.79,1.42224553 6.79,3.17482914 C6.79313461,3.91608605 7.05284773,4.63338896 7.525,5.20482914 L9.85833333,8.02816247 L11.095,8.02816247 L11.095,7.81816247 C11.095971,6.41781574 11.8309831,5.12047524 13.0316667,4.39982914 C13.9963648,3.89398909 14.4827212,2.78797904 14.2034469,1.7351151 C13.9241727,0.682251153 12.9535823,-0.0373008673 11.865,0.00149580259 L11.8416667,0.00149580259 Z" id="Shape"></path>
            <path d="M3.17333333,13.8848291 C1.60381853,13.8784359 0.333059882,12.6076773 0.326666667,11.0381625 L0.326666667,9.15982914 C0.352675384,8.25332234 0.973526132,7.47261971 1.85089521,7.24315395 C2.72826429,7.0136882 3.65184013,7.39046386 4.11833333,8.16816247 C4.87348738,9.43566729 6.22513517,10.2281644 7.7,10.2681625 L7.7,11.0264958 L4.99333333,13.2198291 C4.48161445,13.6449321 3.83857338,13.8798894 3.17333333,13.8848291 Z" id="Path"></path>
            <path d="M2.33333333,7.4564958 C2.93111819,7.45757618 3.48458588,7.77194582 3.79166667,8.28482914 C4.54581739,9.53392596 5.8407935,10.3583941 7.29166667,10.5131625 L7.29166667,10.8164958 L4.78333333,12.9631625 C4.3337711,13.3440179 3.7625165,13.5509942 3.17333333,13.5464958 C1.78611918,13.5465676 0.659755621,12.4253618 0.653333333,11.0381625 L0.653333333,9.15982914 C0.653245913,8.22814152 1.40173313,7.46925864 2.33333333,7.4564958 M2.33333333,6.7914958 C1.04466892,6.7914958 -1.24344979e-14,7.83616472 -1.24344979e-14,9.12482914 L-1.24344979e-14,11.0031625 C-1.24344979e-14,12.7557461 1.42074973,14.1764958 3.17333333,14.1764958 C3.91459024,14.1733612 4.63189316,13.9136481 5.20333333,13.4414958 L8.02666667,11.1081625 L8.02666667,9.88316247 L7.81666667,9.88316247 C6.41631993,9.88219142 5.11897944,9.1471794 4.39833333,7.9464958 C3.97071368,7.21517145 3.18030121,6.77307634 2.33333333,6.7914958 L2.33333333,6.7914958 Z" id="Shape"></path>
            <path d="M9.15833333,20.6748858 C8.24120016,20.6741023 7.43709966,20.0619103 7.19233593,19.1780412 C6.94757219,18.2941722 7.32221865,17.3555579 8.10833333,16.8831625 C9.37423056,16.1264132 10.1661581,14.7757368 10.2083333,13.3014958 L10.9666667,13.3014958 L13.2183333,16.0081625 C13.9337266,16.8532496 14.0916632,18.0374896 13.6227452,19.0405229 C13.1538271,20.0435562 12.1438754,20.6818084 11.0366667,20.6748858 L9.15833333,20.6748858 Z" id="Path"></path>
            <path d="M10.815,13.6281625 L12.9616667,16.2181625 C13.3425221,16.6677247 13.5494984,17.2389793 13.545,17.8281625 C13.5450718,19.2153766 12.423866,20.3417402 11.0366667,20.3482258 L9.15833333,20.3482258 C8.38658063,20.3547851 7.70681422,19.8416796 7.50166289,19.0976641 C7.29651157,18.3536486 7.61724724,17.5646694 8.28333333,17.1748291 C9.53243016,16.4206784 10.3568983,15.1257023 10.5116667,13.6748291 L10.815,13.6748291 M11.1183333,13.0214958 L9.88166667,13.0214958 L9.88166667,13.2314958 C9.88069562,14.6318425 9.1456836,15.929183 7.945,16.6498291 C6.98030189,17.1556692 6.49394548,18.2616792 6.77321973,19.3145432 C7.05249399,20.3674071 8.02308437,21.0869591 9.11166667,21.0481625 L10.99,21.0481625 C12.7425836,21.0481625 14.1633333,19.6274127 14.1633333,17.8748291 C14.1601987,17.1335722 13.9004856,16.4162693 13.4283333,15.8448291 L11.095,13.0214958 L11.1183333,13.0214958 Z" id="Shape"></path>
            <path d="M18.6666667,13.8848291 C17.9514861,13.8776838 17.2903114,13.5030181 16.9166667,12.8931625 C16.1599174,11.6272652 14.809241,10.8353377 13.335,10.7931625 L13.335,10.0348291 L16.0416667,7.78316247 C16.8867538,7.06776917 18.0709938,6.90983259 19.0740271,7.37875065 C20.0770604,7.84766871 20.7153126,8.85762039 20.70839,9.96482914 L20.70839,11.8431625 C20.7019596,12.9680932 19.7915974,13.8784554 18.6666667,13.8848291 L18.6666667,13.8848291 Z" id="Path"></path>
            <path d="M17.8266667,7.4564958 C19.2138808,7.45642399 20.3402444,8.57762985 20.34673,9.96482914 L20.34673,11.8431625 C20.3532893,12.6149152 19.8401838,13.2946816 19.0961683,13.4998329 C18.3521528,13.7049842 17.5631736,13.3842486 17.1733333,12.7181625 C16.4191826,11.4690656 15.1242065,10.6445975 13.6733333,10.4898291 L13.6733333,10.1864958 L16.2166667,8.03982914 C16.6662289,7.65897373 17.2374835,7.45199743 17.8266667,7.4564958 M17.8266667,6.7914958 C17.0854098,6.79463041 16.3681068,7.05434354 15.7966667,7.5264958 L12.9733333,9.85982914 L12.9733333,11.0964958 L13.1833333,11.0964958 C14.5836801,11.0974669 15.8810206,11.8324789 16.6016667,13.0331625 C17.1075067,13.9978606 18.2135168,14.484217 19.2663807,14.2049427 C20.3192447,13.9256685 21.0387967,12.9550781 21,11.8664958 L21,9.96482914 C21,8.21224553 19.5792503,6.7914958 17.8266667,6.7914958 L17.8266667,6.7914958 Z" id="Shape"></path>
            <circle id="Oval" cx="10.5" cy="10.5014958" r="1.16666667"></circle>
        </g>
    </g>
</svg>