<?xml version="1.0" encoding="UTF-8"?>
<svg width="28px" height="28px" viewBox="0 0 28 28" version="1.1" xmlns="http://www.w3.org/2000/svg" xmlns:xlink="http://www.w3.org/1999/xlink">
    <title>3. Symbols/28px/heat@2x</title>
    <g id="3.-Symbols/28px/heat" stroke="none" stroke-width="1" fill="none" fill-rule="evenodd">
        <rect id="Rectangle" x="0" y="0" width="27.8068966" height="27.8068966"></rect>
        <path d="M13.9034483,16.8 C12.3037269,16.8 11.0068966,15.5031696 11.0068966,13.9034483 C11.0068966,12.3037269 12.3037269,11.0068966 13.9034483,11.0068966 C15.5031696,11.0068966 16.8,12.3037269 16.8,13.9034483 C16.8,15.5031696 15.5031696,16.8 13.9034483,16.8 L13.9034483,16.8 Z M25.4896552,14.8766897 L25.4896552,12.5594483 L18.9202759,12.5594483 C18.7879851,12.056385 18.5809932,11.5760075 18.3062069,11.1343448 L21.6777931,7.77434483 L20.0325517,6.12910345 L16.6725517,9.50068966 C16.1762908,9.18972878 15.6321712,8.96268607 15.062069,8.82868966 L15.062069,2.31724138 L12.7448276,2.31724138 L12.7448276,8.82868966 C12.1747254,8.96268607 11.6306058,9.18972878 11.1343448,9.50068966 L7.77434483,6.12910345 L6.12910345,7.77434483 L9.50068966,11.1343448 C9.22590336,11.5760075 9.01891142,12.056385 8.88662069,12.5594483 L2.31724138,12.5594483 L2.31724138,14.8766897 L8.78234483,14.8766897 C8.91198555,15.513597 9.15532098,16.1219356 9.50068966,16.6725517 L6.12910345,20.0325517 L7.77434483,21.6777931 L11.1343448,18.3062069 C11.6306058,18.6171678 12.1747254,18.8442105 12.7448276,18.9782069 L12.7448276,25.4896552 L15.062069,25.4896552 L15.062069,18.9782069 C15.6321712,18.8442105 16.1762908,18.6171678 16.6725517,18.3062069 L20.0325517,21.6777931 L21.6777931,20.0325517 L18.3062069,16.6725517 C18.6515756,16.1219356 18.894911,15.513597 19.0245517,14.8766897 L25.4896552,14.8766897 Z" id="Shape" fill="#377781"></path>
    </g>
</svg>