<?xml version="1.0" encoding="UTF-8"?>
<svg width="28px" height="28px" viewBox="0 0 28 28" version="1.1" xmlns="http://www.w3.org/2000/svg" xmlns:xlink="http://www.w3.org/1999/xlink">
    <title>3. Symbols/28px/snow@2x</title>
    <g id="3.-Symbols/28px/snow" stroke="none" stroke-width="1" fill="none" fill-rule="evenodd">
        <rect id="Rectangle" x="0" y="0" width="27.8068966" height="27.8068966"></rect>
        <polygon id="Path" fill="#377781" points="23.9718621 16.6493793 23.3693793 14.4132414 19.0824828 15.5602759 16.2206897 13.9034483 19.0824828 12.2466207 23.3693793 13.3936552 23.9718621 11.1575172 21.9211034 10.6129655 24.5164138 9.11834483 23.3577931 7.10234483 20.7624828 8.60855172 21.3070345 6.5577931 19.0708966 5.95531034 17.9238621 10.2422069 15.062069 11.8990345 15.062069 8.58537931 18.201931 5.45710345 16.5566897 3.81186207 15.062069 5.31806897 15.062069 2.31724138 12.7448276 2.31724138 12.7448276 5.31806897 11.2502069 3.81186207 9.60496552 5.45710345 12.7448276 8.58537931 12.7448276 11.8990345 9.88303448 10.2422069 8.736 5.95531034 6.49986207 6.5577931 7.04441379 8.60855172 4.44910345 7.10234483 3.29048276 9.11834483 5.8857931 10.6129655 3.83503448 11.1575172 4.43751724 13.3936552 8.72441379 12.2466207 11.5862069 13.9034483 8.72441379 15.5602759 4.43751724 14.4132414 3.83503448 16.6493793 5.8857931 17.193931 3.29048276 18.6885517 4.44910345 20.7045517 7.04441379 19.1983448 6.49986207 21.2491034 8.736 21.8515862 9.88303448 17.5646897 12.7448276 15.9078621 12.7448276 19.2215172 9.60496552 22.3497931 11.2502069 23.9950345 12.7448276 22.4888276 12.7448276 25.4896552 15.062069 25.4896552 15.062069 22.4888276 16.5566897 23.9950345 18.201931 22.3497931 15.062069 19.2215172 15.062069 15.9078621 17.9238621 17.5646897 19.0708966 21.8515862 21.3070345 21.2491034 20.7624828 19.1983448 23.3577931 20.7045517 24.5164138 18.6885517 21.9211034 17.193931"></polygon>
    </g>
</svg>