<?xml version="1.0" encoding="UTF-8"?>
<svg width="28px" height="28px" viewBox="0 0 28 28" version="1.1" xmlns="http://www.w3.org/2000/svg" xmlns:xlink="http://www.w3.org/1999/xlink">
    <title>3. Symbols/28px/water@2x</title>
    <g id="3.-Symbols/28px/water" stroke="none" stroke-width="1" fill="none" fill-rule="evenodd">
        <rect id="Rectangle" x="0" y="0" width="27.8068966" height="27.8068966"></rect>
        <path d="M13.9034483,24.3310345 C9.68282959,24.3246541 6.26293211,20.9047566 6.25655172,16.6841379 C6.25655172,11.6673103 12.7448276,4.18262069 13.0344828,3.8697931 L13.9034483,2.87337931 L14.7724138,3.8697931 C15.0504828,4.18262069 21.5503448,11.6673103 21.5503448,16.6841379 C21.5439644,20.9047566 18.124067,24.3246541 13.9034483,24.3310345 L13.9034483,24.3310345 Z M13.9034483,6.44193103 C11.8758621,8.97931034 8.5737931,13.7296552 8.5737931,16.6841379 C8.5737931,19.6276252 10.959961,22.013793 13.9034483,22.013793 C16.8469355,22.013793 19.2331034,19.6276252 19.2331034,16.6841379 C19.2331034,13.7296552 15.9310345,8.97931034 13.9034483,6.44193103 Z" id="Shape" fill="#377781"></path>
    </g>
</svg>