<?xml version="1.0" encoding="UTF-8"?>
<svg width="24px" height="24px" viewBox="0 0 24 24" version="1.1" xmlns="http://www.w3.org/2000/svg" xmlns:xlink="http://www.w3.org/1999/xlink">
    <title>3. Symbols/24px/light@2x</title>
    <g id="3.-Symbols/24px/light" stroke="none" stroke-width="1" fill="none" fill-rule="evenodd">
        <g id="light">
            <rect id="Rectangle" x="0" y="0" width="24" height="24"></rect>
            <path d="M15,17.93 L9,17.93 L9,15.39 C6.04228839,13.9870342 4.45190575,10.7215377 5.17094856,7.52789586 C5.88999136,4.33425398 8.72641313,2.06544468 12,2.06544468 C15.2735869,2.06544468 18.1100086,4.33425398 18.8290514,7.52789586 C19.5480942,10.7215377 17.9577116,13.9870342 15,15.39 L15,17.93 Z M11,15.93 L13,15.93 L13,14 L13.67,13.76 C15.9647069,12.9468725 17.340223,10.5991896 16.9276935,8.19988226 C16.515164,5.80057492 14.4345136,4.04713463 12,4.04713463 C9.56548643,4.04713463 7.48483596,5.80057492 7.07230648,8.19988226 C6.659777,10.5991896 8.03529306,12.9468725 10.33,13.76 L11,14 L11,15.93 Z" id="Shape" fill="#377781"></path>
            <rect id="Rectangle" fill="#377781" x="9" y="19" width="6" height="2"></rect>
        </g>
    </g>
</svg>