<?xml version="1.0" encoding="UTF-8"?>
<svg width="24px" height="24px" viewBox="0 0 24 24" version="1.1" xmlns="http://www.w3.org/2000/svg" xmlns:xlink="http://www.w3.org/1999/xlink">
    <title>3. Symbols/24px/rangehood@2x</title>
    <g id="3.-Symbols/24px/rangehood" stroke="none" stroke-width="1" fill="none" fill-rule="evenodd">
        <rect id="mask" x="0" y="0" width="24" height="24"></rect>
        <g id="rangehood" transform="translate(2.660000, 4.000000)" fill="#377781">
            <rect id="Rectangle" x="3.34" y="0" width="12" height="2"></rect>
            <path d="M18.68,12 L1.45661261e-13,12 L3.22,3 L15.46,3 L18.68,12 Z M2.84,10 L15.84,10 L14.05,5 L4.63,5 L2.84,10 Z" id="Shape"></path>
            <path d="M10.34,17 L8.34,17 C6.34,15.67 10.34,14.33 8.34,13 L10.34,13 C12.34,14.33 8.34,15.67 10.34,17 Z" id="Path"></path>
            <path d="M5.34,17 L3.34,17 C1.34,15.67 5.34,14.33 3.34,13 L5.34,13 C7.34,14.33 3.34,15.67 5.34,17 Z" id="Path"></path>
            <path d="M15.34,17 L13.34,17 C11.34,15.67 15.34,14.33 13.34,13 L15.34,13 C17.34,14.33 13.34,15.67 15.34,17 Z" id="Path"></path>
        </g>
    </g>
</svg>