<?xml version="1.0" encoding="UTF-8"?>
<svg width="24px" height="24px" viewBox="0 0 24 24" version="1.1" xmlns="http://www.w3.org/2000/svg" xmlns:xlink="http://www.w3.org/1999/xlink">
    <title>3. Symbols/24px/sensor@2x</title>
    <defs>
        <polygon id="path-1" points="0 24 0 0 12 12"></polygon>
        <polygon id="path-3" points="12 24 12 0 0 12"></polygon>
    </defs>
    <g id="3.-Symbols/24px/sensor" stroke="none" stroke-width="1" fill="none" fill-rule="evenodd">
        <rect id="mask" x="0" y="0" width="24" height="24"></rect>
        <circle id="Oval" fill="#377781" cx="12" cy="12" r="2"></circle>
        <g id="Clipped">
            <mask id="mask-2" fill="white">
                <use xlink:href="#path-1"></use>
            </mask>
            <g id="SVGID"></g>
            <path d="M12,18.21 C8.5703117,18.21 5.79,15.4296883 5.79,12 C5.79,8.5703117 8.5703117,5.79 12,5.79 C15.4296883,5.79 18.21,8.5703117 18.21,12 C18.2044941,15.4274051 15.4274051,18.2044941 12,18.21 Z M12,7.79 C9.6748812,7.79 7.79,9.6748812 7.79,12 C7.79,14.3251188 9.6748812,16.21 12,16.21 C14.3251188,16.21 16.21,14.3251188 16.21,12 C16.2045021,9.6771623 14.3228377,7.79549786 12,7.79 Z" id="Shape" fill="#377781" mask="url(#mask-2)"></path>
            <path d="M12,22 C6.4771525,22 2,17.5228475 2,12 C2,6.4771525 6.4771525,2 12,2 C17.5228475,2 22,6.4771525 22,12 C22,17.5228475 17.5228475,22 12,22 Z M12,4 C7.581722,4 4,7.581722 4,12 C4,16.418278 7.581722,20 12,20 C16.418278,20 20,16.418278 20,12 C20,9.87826808 19.1571453,7.84343678 17.6568542,6.34314575 C16.1565632,4.84285472 14.1217319,4 12,4 Z" id="Shape" fill="#377781" mask="url(#mask-2)"></path>
        </g>
        <g id="Clipped" transform="translate(12.000000, 0.000000)">
            <mask id="mask-4" fill="white">
                <use xlink:href="#path-3"></use>
            </mask>
            <g id="SVGID-2"></g>
            <path d="M-6.21,12 C-6.21,8.5703117 -3.4296883,5.79 8.8817842e-16,5.79 C3.4296883,5.79 6.21,8.5703117 6.21,12 C6.21,15.4296883 3.4296883,18.21 8.8817842e-16,18.21 C-3.42740509,18.2044941 -6.20449412,15.4274051 -6.21,12 Z M-4.21,12 C-4.21,14.3251188 -2.3251188,16.21 8.8817842e-16,16.21 C2.3251188,16.21 4.21,14.3251188 4.21,12 C4.21,9.6748812 2.3251188,7.79 8.8817842e-16,7.79 C-2.3228377,7.79549786 -4.20450214,9.6771623 -4.21,12 Z" id="Shape" fill="#377781" mask="url(#mask-4)"></path>
            <path d="M-10,12 C-10,6.4771525 -5.5228475,2 0,2 C5.5228475,2 10,6.4771525 10,12 C10,17.5228475 5.5228475,22 0,22 C-2.6521649,22 -5.19570403,20.9464316 -7.07106781,19.0710678 C-8.9464316,17.195704 -10,14.6521649 -10,12 L-10,12 Z M-8,12 C-8,16.418278 -4.418278,20 0,20 C4.418278,20 8,16.418278 8,12 C8,7.581722 4.418278,4 0,4 C-4.418278,4 -8,7.581722 -8,12 Z" id="Shape" fill="#377781" mask="url(#mask-4)"></path>
        </g>
    </g>
</svg>