<?xml version="1.0" encoding="UTF-8"?>
<svg width="24px" height="24px" viewBox="0 0 24 24" version="1.1" xmlns="http://www.w3.org/2000/svg" xmlns:xlink="http://www.w3.org/1999/xlink">
    <title>3. Symbols/24px/snow@2x</title>
    <g id="3.-Symbols/24px/snow" stroke="none" stroke-width="1" fill="none" fill-rule="evenodd">
        <rect id="Rectangle" x="0" y="0" width="24" height="24"></rect>
        <polygon id="Path" fill="#377781" points="20.69 14.37 20.17 12.44 16.47 13.43 14 12 16.47 10.57 20.17 11.56 20.69 9.63 18.92 9.16 21.16 7.87 20.16 6.13 17.92 7.43 18.39 5.66 16.46 5.14 15.47 8.84 13 10.27 13 7.41 15.71 4.71 14.29 3.29 13 4.59 13 2 11 2 11 4.59 9.71 3.29 8.29 4.71 11 7.41 11 10.27 8.53 8.84 7.54 5.14 5.61 5.66 6.08 7.43 3.84 6.13 2.84 7.87 5.08 9.16 3.31 9.63 3.83 11.56 7.53 10.57 10 12 7.53 13.43 3.83 12.44 3.31 14.37 5.08 14.84 2.84 16.13 3.84 17.87 6.08 16.57 5.61 18.34 7.54 18.86 8.53 15.16 11 13.73 11 16.59 8.29 19.29 9.71 20.71 11 19.41 11 22 13 22 13 19.41 14.29 20.71 15.71 19.29 13 16.59 13 13.73 15.47 15.16 16.46 18.86 18.39 18.34 17.92 16.57 20.16 17.87 21.16 16.13 18.92 14.84"></polygon>
    </g>
</svg>