<?xml version="1.0" encoding="UTF-8"?>
<svg width="44px" height="45px" viewBox="0 0 44 45" version="1.1" xmlns="http://www.w3.org/2000/svg" xmlns:xlink="http://www.w3.org/1999/xlink">
    <title>3. Symbols/45px/humidity@2x</title>
    <g id="3.-Symbols/45px/humidity" stroke="none" stroke-width="1" fill="none" fill-rule="evenodd">
        <rect id="Rectangle" x="-3.19744231e-14" y="-3.19744231e-14" width="44.4910345" height="44.4910345"></rect>
        <path d="M23.7292185,6.59689725 L22.4022966,5 L20.9869133,6.59689725 C20.544606,7.10579858 10,19.1439471 10,27.216175 C10,34.0003442 15.5447762,39.5 22.3846043,39.5 C29.2244324,39.5 34.7692308,34.0003442 34.7692308,27.216175 C34.786901,19.1439471 24.1715258,7.10579858 23.7292185,6.59689725 Z" id="Path" fill="#43A0B2"></path>
        <path d="M17.0802916,25.0374981 C17.0442116,24.3977356 17.2993296,23.7742181 17.7802964,23.3266615 C18.2685999,22.899855 18.9130225,22.6725837 19.5751806,22.693652 C20.2370272,22.6744089 20.8807514,22.9014339 21.3700648,23.3266615 C21.8470994,23.7766895 22.1015003,24.3984544 22.0700696,25.0374981 L22.0700696,25.6533993 C22.110973,26.293891 21.8550994,26.9192552 21.3700648,27.3642359 C20.8760512,27.7801788 20.2339808,28.0005005 19.5751806,27.9801371 C18.9136431,27.9975845 18.2706013,27.7708001 17.7802964,27.3471275 C17.3001615,26.9061236 17.0447159,26.2880488 17.0802916,25.6533993 L17.0802916,25.0374981 Z M18.623892,25.6362909 C18.6115728,25.9083985 18.7151407,26.1737036 18.9110734,26.3719507 C19.0962283,26.5597922 19.3590394,26.6599941 19.6290271,26.6456845 C19.9033221,26.6634803 20.1700567,26.5554264 20.3469808,26.3548423 C20.5425863,26.1675537 20.6577997,25.9174118 20.67006,25.6533993 L20.67006,25.0888232 C20.6807379,24.8148451 20.5848568,24.5467639 20.4008273,24.3360551 C20.2087464,24.1474546 19.9402554,24.0475839 19.6649248,24.0623212 C19.3953426,24.050337 19.1335148,24.150164 18.9469711,24.3360551 C18.7543235,24.5555858 18.6578917,24.8374622 18.6777385,25.1230399 L18.623892,25.6362909 Z M20.095697,33.2152971 L18.8751758,32.6336127 L24.6726517,23.9425627 L25.8034287,24.5242471 L20.095697,33.2152971 Z M22.6803303,31.3162685 C22.6337592,30.6715222 22.8980632,30.0417031 23.3982839,29.6054319 C23.8865874,29.1786254 24.5310101,28.9513541 25.1931681,28.9724223 C25.850551,28.9604356 26.4895292,29.1796962 26.9880523,29.5883235 C27.4670365,30.0371285 27.7217914,30.6597583 27.6880572,31.2991601 L27.6880572,31.8466278 C27.7289606,32.4871196 27.4730869,33.1124838 26.9880523,33.5574644 C26.5018261,33.9875024 25.8559559,34.2152842 25.1931681,34.190474 C24.5313215,34.209717 23.8875974,33.9826921 23.3982839,33.5574644 C22.9192997,33.1086595 22.6645449,32.4860296 22.6982791,31.8466278 L22.6803303,31.3162685 Z M24.2239307,31.9150613 C24.2183727,32.1809974 24.3213308,32.4386069 24.5111121,32.6336127 C24.6951089,32.8368302 24.9655342,32.9499942 25.2470146,32.9415633 C25.893173,32.9415633 26.2162521,32.5822876 26.2162521,31.8979529 L26.2162521,31.3162685 C26.2295089,31.0471146 26.1330343,30.7835044 25.9470195,30.5806087 C25.7623279,30.390287 25.5010002,30.2844235 25.2290658,30.2897665 C24.9517938,30.2838778 24.6847118,30.3894335 24.4931633,30.5806087 C24.3060257,30.7896431 24.2097188,31.0589149 24.2239307,31.3333769 L24.2239307,31.9150613 Z" id="Shape" fill="#FFFFFF" fill-rule="nonzero"></path>
    </g>
</svg>