<?xml version="1.0" encoding="UTF-8"?>
<svg width="45px" height="45px" viewBox="0 0 45 45" version="1.1" xmlns="http://www.w3.org/2000/svg" xmlns:xlink="http://www.w3.org/1999/xlink">
    <title>3. Symbols/45px/temp@2x</title>
    <g id="3.-Symbols/45px/temp" stroke="none" stroke-width="1" fill="none" fill-rule="evenodd">
        <rect id="mask" x="0" y="0" width="45" height="45"></rect>
        <path d="M23.0625,41.0625 L21.9375,41.0625 C21.3665193,41.0583621 20.8010577,40.9503525 20.26875,40.74375 C17.1697832,39.9019184 14.821947,37.3669293 14.2197963,34.2126163 C13.6176455,31.0583034 14.8665625,27.8367027 17.4375,25.9125 L17.4375,8.4375 C17.4477735,5.9564865 19.4564865,3.94777348 21.9375,3.9375 L23.0625,3.9375 C25.5435135,3.94777348 27.5522265,5.9564865 27.5625,8.4375 L27.5625,25.9125 C30.1334375,27.8367027 31.3823545,31.0583034 30.7802037,34.2126163 C30.178053,37.3669293 27.8302168,39.9019184 24.73125,40.74375 C24.1989423,40.9503525 23.6334807,41.0583621 23.0625,41.0625 L23.0625,41.0625 Z M21.9375,7.3125 C21.3161797,7.3125 20.8125,7.81617966 20.8125,8.4375 L20.8125,27.7875 L19.96875,28.275 C18.1962584,29.2963984 17.2198948,31.2903635 17.4999745,33.3168226 C17.7800543,35.3432817 19.2606612,36.9976655 21.24375,37.5 L21.4875,37.59375 C21.6307015,37.6516102 21.7831065,37.6833612 21.9375,37.6875 L23.0625,37.6875 C23.2168935,37.6833612 23.3692985,37.6516102 23.5125,37.59375 L23.75625,37.5 C25.7393388,36.9976655 27.2199457,35.3432817 27.5000255,33.3168226 C27.7801052,31.2903635 26.8037416,29.2963984 25.03125,28.275 L24.1875,27.7875 L24.1875,8.4375 C24.1875,7.81617966 23.6838203,7.3125 23.0625,7.3125 L21.9375,7.3125 Z" id="Shape" fill="#43A0B2"></path>
        <path d="M22.5,35.625 C20.8431458,35.625 19.5,34.2818542 19.5,32.625 C19.5,30.9681458 20.8431458,29.625 22.5,29.625 C24.1568542,29.625 25.5,30.9681458 25.5,32.625 C25.5,34.2818542 24.1568542,35.625 22.5,35.625 Z" id="Path" fill="#43A0B2"></path>
    </g>
</svg>