<?xml version="1.0" encoding="UTF-8"?>
<svg width="160px" height="160px" viewBox="0 0 160 160" version="1.1" xmlns="http://www.w3.org/2000/svg" xmlns:xlink="http://www.w3.org/1999/xlink">
    <title>4. pic/160px/fan@2x</title>
    <g id="4.-pic/160px/fan" stroke="none" stroke-width="1" fill="none" fill-rule="evenodd">
        <path d="M83.6798478,95 L97.6457675,111.527473 C102.317379,117.069344 103.319319,124.771047 100.217322,131.294484 C97.1697457,137.703475 90.6998278,141.841969 83.5398181,141.995592 L83.1556016,142 L72.0468238,142 C65.7333398,141.991189 60.1993367,137.838966 58.5125308,131.845071 C56.8257249,125.851176 59.3994478,119.484342 64.8069833,116.273956 C71.8373479,112.122168 76.1872889,104.697398 76.3364376,96.6433644 L76.3404005,96.2189011 L76.3404005,95 L83.6798478,95 Z M81.8554709,98.8478022 L81.8397435,98.852967 L80.0940036,98.852967 C79.2426517,107.288553 74.4739555,114.850495 67.1966111,119.341795 L66.8043615,119.579451 C62.8934476,121.900067 61.0327083,126.504807 62.2546309,130.838592 C63.4505552,135.080169 67.3121874,138.043685 71.7561931,138.168774 L72.0468238,138.172925 L83.1556016,138.172925 C88.9680587,138.185149 94.2621274,134.880994 96.7340295,129.698233 C99.1544337,124.623447 98.4404091,118.646206 94.9176848,114.268341 L94.6890188,113.991099 L81.8554709,98.8478022 Z M31.8417582,58 C36.5925325,58.0024615 41.0046709,60.4696777 43.5427925,64.5259344 L43.7208791,64.8183577 C47.8735979,71.848147 55.3006788,76.1970159 63.3565399,76.3443795 L63.7810989,76.3482477 L65,76.3482477 L65,83.6854505 L48.4725275,97.6470991 C42.9306565,102.317282 35.228953,103.318915 28.7055157,100.217867 C22.2965246,97.1712229 18.1580312,90.7032836 18.004408,83.5454636 L18,83.1613646 L18,72.0559841 C18.0028062,64.4031989 24.0304063,58.1789334 31.5326293,58.0037808 L31.8417582,58 Z M123.432418,58 L123.406593,58.0261798 C133.56383,58.0261798 141.818802,66.2828983 141.997058,76.5368622 L142,76.8756202 L142,87.9706103 C141.991189,94.2762584 137.838966,99.803393 131.845071,101.488105 C125.95821,103.142734 119.71161,100.692737 116.44894,95.4880793 L116.273956,95.2014651 C112.122168,88.1798263 104.697398,83.8352842 96.6433644,83.6863206 L96.2189011,83.6823626 L95,83.6823626 L95,76.3520247 L111.553297,62.366787 C114.777557,59.643868 118.812072,58.1095172 122.998793,58.0056339 L123.432418,58 Z M31.8417582,61.8991992 C26.4073215,61.9048746 21.9852903,66.2979168 21.8312473,71.776493 L21.8270747,72.0559841 L21.8270747,83.1613646 C21.8148506,88.9720441 25.1190064,94.2644938 30.301767,96.73564 C35.3765533,99.1553039 41.3537944,98.4414977 45.7316591,94.9198507 L46.0089011,94.6912546 L61.1521978,81.8616315 L61.1521978,80.1164254 C52.716612,79.2653339 45.15467,74.4980961 40.6633697,67.2229772 L40.4257143,66.8308476 C38.609359,63.7787703 35.3554359,61.9093287 31.8417582,61.8991992 Z M123.432418,61.895551 C120.116128,61.8976003 116.900823,63.0295783 114.300191,65.103178 L113.991099,65.3565177 L98.852967,78.205553 L98.852967,79.9491262 C107.288553,80.7994215 114.850495,85.5621989 119.341795,92.8305112 L119.579451,93.2222739 C121.900067,97.1283337 126.504807,98.9867636 130.838592,97.7663576 C135.080169,96.5719176 138.043685,92.7150783 138.168742,88.2765882 L138.172857,87.9863182 L138.172857,76.8756202 C138.172857,68.7258944 131.743913,62.097084 123.744853,61.9201144 L123.432418,61.9164949 L123.432418,61.895551 Z M87.9748109,18 L87.9590804,18.0154894 C94.2703152,18.0281221 99.8006563,22.1778422 101.487178,28.1663672 C103.143582,34.0479541 100.694049,40.2894251 95.4870904,43.5528599 L95.200348,43.7278919 C88.1670221,47.8792421 83.8159653,55.3038753 83.6685276,63.3570815 L83.6646574,63.7815006 L83.6646574,65 L76.3237634,65 L62.3550908,48.4624849 C57.6825581,42.9224403 56.6804212,35.223275 59.7830296,28.7019876 C62.8312064,22.2951087 69.3023997,18.1579791 76.4638207,18.0044065 L76.848113,18 L87.9748109,18 Z M87.9590804,21.8413517 L76.848113,21.8413517 C71.0372364,21.8348356 65.7478545,25.1411911 63.2812321,30.3219329 C60.8659977,35.3947426 61.5847373,41.3665389 65.1098261,45.7383078 L65.3386398,46.0151598 L78.1642304,61.1483028 L79.9103145,61.1483028 C80.7618342,52.715497 85.5314703,45.1560472 92.8102493,40.666227 L93.2025761,40.4286499 C97.1142609,38.1087982 98.975367,33.5055754 97.7532036,29.1732187 C96.5570435,24.9330398 92.6946501,21.9705005 88.2497684,21.8454761 L87.9590804,21.8413517 Z" id="Shape" fill="#FFFFFF" fill-rule="nonzero"></path>
        <polygon id="Path" fill="#FFFFFF" fill-rule="nonzero" points="81 3 81 73.069 99.1193252 6 101 6.49601221 83.124 72.663 117.629437 12.8273731 119.297146 13.7890617 84.493 74.144 133.637004 25 135 26.3578972 85.855 75.505 146.217685 40.6970056 147.179374 42.3647151 86.446 77.386 154.503988 59 155 60.8702555 87.909 79 157 79 157 81 87.931 81 155 99.1193252 154.503988 101 88.098 83.055 147.777071 117.354534 146.81451 119.029391 84.687 83.323 135 133.63694 133.637004 135 84.485 85.845 119.329748 146.197899 117.662542 147.16046 82.618 86.461 101 154.503988 99.1193252 155 81 87.931 81 157 79 157 79 87.929 60.8806748 155 59 154.503988 77.375 86.487 42.3724008 147.187886 40.7046914 146.226198 75.534 85.827 26.3629963 135 25 133.63694 74.173 84.464 13.7805493 119.289461 12.8188607 117.621751 72.637 83.126 6.49601221 101 6 99.1193252 73.069 81 3 81 3 79 73.09 79 6 60.8702555 6.49601221 59 74.179 77.285 12.8439363 42.0348088 13.8064979 40.3599515 73.045 74.404 25 26.3578972 26.3629963 25 75.505 74.142 40.6679598 13.8019317 42.3351655 12.83937 76.876 72.666 59 6.49601221 60.8806748 6 79 73.071 79 3"></polygon>
        <path d="M80,0 C124.18278,0 160,35.81722 160,80 C160,124.18278 124.18278,160 80,160 C35.81722,160 0,124.18278 0,80 C0,35.81722 35.81722,0 80,0 Z M80,5.78313253 C39.0734045,5.78313253 5.78313253,39.0734045 5.78313253,80 C5.78313253,120.926595 39.0734045,154.216867 80,154.216867 C120.926595,154.216867 154.216867,120.926595 154.216867,80 C154.216867,39.0734045 120.926595,5.78313253 80,5.78313253 Z" id="Shape" fill="#FFFFFF" fill-rule="nonzero"></path>
        <ellipse id="Oval" fill="#43A0B2" cx="80.5" cy="80.5" rx="16.5" ry="16"></ellipse>
        <circle id="Oval" fill="#FFFFFF" fill-rule="nonzero" cx="80.5" cy="80.5" r="7.5"></circle>
    </g>
</svg>