<?xml version="1.0" encoding="UTF-8"?>
<svg width="123px" height="160px" viewBox="0 0 123 160" version="1.1" xmlns="http://www.w3.org/2000/svg" xmlns:xlink="http://www.w3.org/1999/xlink">
    <title>4. pic/160px/light@2x</title>
    <g id="4.-pic/160px/light" stroke="none" stroke-width="1" fill="none" fill-rule="evenodd">
        <path d="M57.1143587,159.038356 L65.5259716,159.038356 C72.4998582,159.038356 78.1533103,153.374341 78.1533103,146.387424 L44.48702,146.387424 C44.48702,153.374341 50.1404721,159.038356 57.1143587,159.038356 Z" id="Path" fill="#FFFFFF" fill-rule="nonzero"></path>
        <path d="M99.9659716,13.7464305 C85.4364018,1.98650773 66.3755877,-2.55469358 48.1175038,1.39363544 C24.5054676,6.53905304 6.13554863,25.1380483 1.24855221,48.8470516 C-4.70306069,78.6607162 11.0786329,107.639598 38.8726651,118.571275 L38.8726651,133.09053 C38.8781302,137.440675 42.3966807,140.9658 46.7387135,140.971275 L75.9016167,140.971275 C80.2436496,140.9658 83.7622,137.440675 83.7676651,133.09053 L83.7676651,118.571275 C104.056763,110.585324 118.58426,92.4025186 121.919325,70.8201571 C125.254391,49.2377956 116.894931,27.5051007 99.9659716,13.7464305 Z M48.0976651,85.0011034 L44.6457296,85.0011034 C42.7338115,85.0065695 41.1794595,83.4582035 41.1739694,81.5427132 C41.1685082,79.6272228 42.7139824,78.0699625 44.6259005,78.0644568 C46.5378186,78.0589802 48.092179,79.6073377 48.0976651,81.522828 L48.0976651,85.0011034 Z M69.4441167,129.522828 L53.1962135,129.522828 L53.1962135,90.1091634 L69.4441167,90.1091634 L69.4441167,129.522828 Z M79.7503264,113.622207 L77.7664554,114.337735 L77.7664554,129.522828 L74.5426651,129.522828 L74.5426651,90.1091634 L77.9846812,90.1091634 C81.436803,90.1051208 84.5462029,88.0170248 85.8616947,84.8194096 C87.1771866,81.6217944 86.4394234,77.9450643 83.9927263,75.5051837 C81.5460292,73.0653032 77.8727602,72.3432905 74.6872686,73.6761158 C71.5017769,75.0089411 69.4320768,78.1338402 69.4441167,81.5923932 L69.4441167,85.0010889 L53.1962135,85.0010889 L53.1962135,81.522828 C53.1962042,78.0481728 51.1059591,74.9160332 47.9010128,73.5882046 C44.6960664,72.2603761 41.0082665,72.9986368 38.5587396,75.4584344 C36.1092127,77.918232 35.3808772,81.6146232 36.7136534,84.8224718 C38.0464296,88.0303204 41.1775637,90.1172066 44.6457296,90.1091634 L48.1075845,90.1091634 L48.1075845,129.522828 L44.8937135,129.522828 L44.8937135,114.317859 L42.9098425,113.602331 C16.7227458,104.320344 1.69492318,77.5675485 7.20016511,49.9998466 C11.5971509,28.6507429 28.1363328,11.901481 49.3971006,7.26692736 C53.2805183,6.46363657 57.2358093,6.06070849 61.2011329,6.06424522 C88.1462702,5.99280292 111.214608,25.4014332 115.801825,52.002935 C120.389042,78.6044368 105.157584,104.642265 79.7503264,113.632145 L79.7503264,113.622207 Z M74.5426651,85.0010889 L74.5426651,85.0010889 L74.5426651,81.5923932 C74.5144514,80.1768755 75.3454355,78.8854758 76.6439503,78.3268684 C77.9424651,77.7682611 79.4493594,78.0539302 80.45439,79.0492316 C81.4594206,80.044533 81.7620085,81.5508294 81.2195351,82.8581592 C80.6770617,84.1654891 79.3977913,85.0129421 77.9846812,85.0010889 L74.5426651,85.0010889 Z" id="Shape" fill="#FFFFFF" fill-rule="nonzero"></path>
    </g>
</svg>