<?xml version="1.0" encoding="UTF-8"?>
<svg width="32px" height="32px" viewBox="0 0 32 32" version="1.1" xmlns="http://www.w3.org/2000/svg" xmlns:xlink="http://www.w3.org/1999/xlink">
    <title>3. Symbols/32px/light_disabled@2x</title>
    <g id="3.-Symbols/32px/light_disabled" stroke="none" stroke-width="1" fill="none" fill-rule="evenodd">
        <g id="light">
            <rect id="Rectangle" x="0" y="0" width="32" height="32"></rect>
            <path d="M20,23.9066667 L12,23.9066667 L12,20.52 C8.05638453,18.6493789 5.93587434,14.2953836 6.89459808,10.0371945 C7.85332181,5.77900531 11.6352175,2.75392624 16,2.75392624 C20.3647825,2.75392624 24.1466782,5.77900531 25.1054019,10.0371945 C26.0641257,14.2953836 23.9436155,18.6493789 20,20.52 L20,23.9066667 Z M14.6666667,21.24 L17.3333333,21.24 L17.3333333,18.6666667 L18.2266667,18.3466667 C21.2862759,17.2624966 23.1202973,14.1322528 22.570258,10.9331763 C22.0202187,7.73409989 19.2460181,5.39617951 16,5.39617951 C12.7539819,5.39617951 9.97978128,7.73409989 9.42974197,10.9331763 C8.87970267,14.1322528 10.7137241,17.2624966 13.7733333,18.3466667 L14.6666667,18.6666667 L14.6666667,21.24 Z" id="Shape" fill="#999999"></path>
            <rect id="Rectangle" fill="#999999" x="12" y="25.3333333" width="8" height="2.66666667"></rect>
        </g>
    </g>
</svg>